<?xml version="1.0" standalone="no"?>
<!DOCTYPE svg PUBLIC "-//W3C//DTD SVG 20010904//EN"
 "http://www.w3.org/TR/2001/REC-SVG-20010904/DTD/svg10.dtd">
<svg version="1.0" xmlns="http://www.w3.org/2000/svg"
 width="693.368246pt" height="991.984816pt" viewBox="0 0 693.368246 991.984816"
 preserveAspectRatio="xMidYMid meet">
<metadata>
Created by potrace 1.12, written by Peter Selinger 2001-2015
</metadata>
<g transform="translate(-63.000000,991.984816) scale(0.100000,-0.100000)"
fill="#71835A" stroke="none">
<path d="M4980 9910 c-8 -5 -31 -10 -50 -10 -45 0 -60 -15 -60 -57 l0 -33 -34
17 c-38 18 -66 12 -66 -14 0 -9 -12 -27 -27 -39 -27 -22 -27 -24 -13 -51 11
-20 42 -41 110 -74 87 -42 119 -51 105 -29 -2 4 -40 22 -84 39 -43 18 -89 44
-102 58 l-24 25 23 18 c12 10 22 26 22 34 0 23 26 31 55 18 16 -8 36 -38 61
-92 33 -72 40 -81 60 -76 13 4 24 1 27 -7 4 -8 6 -7 6 3 2 29 69 157 90 172
18 13 28 13 56 4 19 -7 37 -15 40 -18 11 -11 -43 -74 -83 -96 -23 -13 -58 -38
-76 -56 -19 -17 -39 -30 -45 -28 -6 2 -11 0 -11 -6 0 -5 42 -10 93 -11 82 -1
97 1 120 19 18 15 27 31 27 51 0 16 -3 29 -7 29 -5 0 -14 4 -21 9 -11 7 -10
16 7 46 23 44 14 75 -22 75 -13 0 -28 5 -34 11 -8 8 -17 8 -31 0 -29 -15 -32
-14 -32 14 0 26 -31 65 -52 65 -7 0 -20 -5 -28 -10z m48 -22 c22 -22 13 -74
-23 -134 -19 -32 -35 -66 -35 -76 0 -10 -3 -18 -7 -18 -12 0 -83 154 -83 178
0 28 25 51 49 45 11 -3 28 0 38 6 24 14 46 14 61 -1z m150 -214 c2 -11 -5 -27
-14 -35 -18 -14 -136 -30 -132 -17 2 4 26 23 53 43 55 38 88 41 93 9z"/>
<path d="M5536 9801 c-20 -22 -36 -74 -36 -119 l0 -34 -30 32 c-31 33 -56 36
-73 9 -15 -25 -1 -63 43 -114 31 -36 40 -55 40 -83 0 -32 -9 -45 -91 -125 -51
-49 -88 -81 -84 -71 24 57 10 203 -20 207 -22 4 -44 -88 -44 -191 l-1 -104
-76 -121 c-123 -196 -149 -225 -255 -287 -52 -30 -120 -79 -152 -109 -31 -30
-60 -51 -63 -48 -8 8 33 196 53 244 35 86 83 122 207 157 76 22 103 41 127 87
10 21 19 41 19 44 0 25 -151 -31 -218 -81 l-34 -26 17 33 c10 18 28 64 41 102
13 38 29 76 35 83 6 8 44 30 85 49 52 25 78 44 89 65 20 38 19 40 -7 40 -43 0
-125 -47 -153 -87 -27 -38 -27 -38 -21 -8 12 68 28 237 22 242 -12 12 -15 -3
-30 -147 -15 -147 -46 -273 -83 -344 l-20 -39 -6 77 c-3 47 -14 93 -26 119
-24 49 -138 197 -152 197 -14 0 -11 -147 5 -184 7 -18 36 -52 64 -75 51 -43
82 -99 82 -146 0 -14 -14 -53 -31 -87 -34 -67 -54 -126 -69 -208 -23 -119 -26
-124 -95 -169 -36 -23 -81 -63 -100 -88 -21 -28 -36 -40 -39 -32 -20 71 -57
274 -54 300 3 31 6 34 58 46 34 9 64 23 78 39 27 31 28 41 3 49 -16 5 -18 12
-14 45 7 47 -13 61 -51 37 -23 -15 -24 -15 -30 9 -8 31 -31 41 -53 23 -9 -8
-30 -14 -47 -14 -29 0 -31 -2 -30 -35 0 -19 4 -43 8 -52 7 -16 4 -17 -23 -12
-24 5 -31 3 -31 -9 0 -19 63 -75 93 -82 20 -5 22 -13 23 -68 1 -34 11 -100 24
-147 35 -136 41 -188 29 -258 -10 -55 -9 -65 5 -81 16 -18 11 -24 -94 -130
-61 -61 -114 -111 -120 -111 -5 0 16 41 46 92 58 99 68 132 69 219 0 50 -8 72
-67 190 -37 74 -70 144 -73 157 -11 40 -23 24 -41 -54 -22 -100 -15 -145 44
-269 42 -90 47 -107 47 -170 -1 -121 -48 -190 -204 -294 -98 -66 -141 -111
-141 -147 0 -32 8 -30 67 10 111 77 208 109 508 171 281 58 359 79 470 121
177 68 321 162 442 286 79 81 90 95 208 263 164 235 275 357 394 433 130 83
310 131 428 112 110 -18 170 -47 246 -119 26 -25 47 -39 47 -31 0 24 -85 97
-152 129 -82 41 -181 53 -293 35 -255 -39 -438 -187 -694 -559 -113 -163 -162
-221 -264 -312 -193 -170 -373 -244 -812 -333 -321 -65 -416 -97 -528 -177
-27 -19 -51 -32 -54 -30 -13 14 27 53 110 108 132 89 216 158 347 285 132 128
142 132 269 118 131 -15 211 -11 257 13 44 24 118 99 109 112 -3 5 -21 5 -40
1 -20 -4 -66 -4 -103 1 -145 18 -247 4 -308 -43 l-29 -23 23 35 c38 58 74 131
102 205 24 67 27 71 70 84 39 13 62 12 190 -3 138 -17 146 -20 168 -47 27 -34
70 -39 95 -11 53 59 -32 119 -93 67 -12 -11 -33 -10 -110 1 -52 7 -129 14
-170 14 l-75 1 45 39 c48 43 254 148 360 186 123 43 300 80 300 63 0 -5 -9
-23 -20 -41 -23 -39 -26 -78 -6 -78 8 0 18 5 21 10 3 6 11 10 16 10 6 0 7 -4
4 -10 -3 -5 -1 -28 5 -50 9 -32 15 -40 33 -40 33 0 47 19 47 63 l0 39 31 -26
c17 -14 34 -26 39 -26 22 0 40 14 40 30 0 11 5 22 10 25 18 11 11 52 -12 67
-23 15 -23 15 12 23 63 13 83 44 58 88 -7 12 -13 33 -13 47 0 19 -6 26 -26 28
-23 3 -26 7 -25 40 1 48 -25 54 -65 16 -28 -27 -29 -27 -29 -6 0 32 -34 28
-58 -5 -28 -42 -43 -85 -45 -131 l-1 -41 -56 -11 c-127 -24 -237 -54 -304 -81
-39 -16 -72 -29 -73 -29 -2 0 21 31 51 69 29 38 71 99 92 136 21 36 40 61 42
55 6 -18 32 -11 42 13 5 12 12 40 15 61 6 34 24 56 121 152 l114 113 26 -54
c38 -82 93 -117 125 -79 10 12 10 22 1 46 -10 26 -9 29 6 22 26 -11 89 -17
116 -10 64 16 30 85 -52 106 l-46 11 33 16 c37 18 76 66 86 103 4 19 0 33 -17
53 -29 33 -69 35 -116 7 -18 -11 -34 -20 -36 -20 -1 0 -1 13 2 30 6 44 -6 98
-29 121 -24 24 -41 24 -63 0z m61 -32 c26 -49 4 -189 -28 -180 -8 2 -22 3 -31
3 -15 -1 -18 9 -18 61 0 124 42 186 77 116z m-128 -114 c17 -20 31 -41 32 -48
2 -32 9 -51 28 -71 12 -12 21 -27 21 -32 0 -5 9 -15 20 -22 11 -7 20 -20 20
-29 0 -15 -2 -14 -14 3 -8 10 -17 16 -21 12 -4 -3 16 -31 44 -62 50 -55 58
-86 22 -86 -36 0 -93 90 -126 200 -4 14 -25 47 -46 74 -63 79 -45 134 20 61z
m278 5 c3 -11 12 -20 19 -20 20 0 17 -22 -9 -60 -24 -36 -65 -64 -109 -75 -25
-6 -28 -4 -28 17 0 13 -5 29 -10 34 -23 23 15 77 75 108 40 21 56 20 62 -4z
m-146 -126 c12 -15 11 -16 -9 -10 -13 4 -22 3 -22 -3 0 -5 8 -12 18 -14 15 -4
15 -5 0 -6 -20 -1 -32 15 -24 34 7 20 20 19 37 -1z m-304 -164 c-3 -36 -11
-78 -18 -95 -13 -29 -14 -27 -17 47 -2 43 2 97 9 120 11 41 12 42 21 18 5 -14
8 -54 5 -90z m441 88 c17 -5 37 -19 43 -31 24 -45 -50 -59 -121 -22 -35 18
-63 52 -55 65 7 12 75 6 133 -12z m-1001 -148 c47 -64 60 -100 68 -190 l6 -65
-21 52 c-15 37 -36 66 -70 94 -56 47 -70 79 -70 161 l0 60 23 -29 c13 -15 42
-53 64 -83z m363 102 c0 -14 -32 -38 -87 -66 -66 -33 -69 -33 -42 5 29 41 129
88 129 61z m144 -266 c-3 -14 -10 -26 -15 -26 -12 0 -11 4 3 35 14 31 21 26
12 -9z m-183 -15 c-28 -39 -55 -55 -126 -75 -33 -10 -76 -27 -95 -38 l-35 -20
40 42 c41 42 181 120 217 120 19 0 19 -1 -1 -29z m582 23 c15 -16 -16 -61 -58
-81 l-45 -22 14 27 c17 32 62 82 74 82 5 0 11 -3 15 -6z m-93 -20 c0 -21 -50
-122 -68 -137 -12 -10 -14 -9 -9 8 3 11 8 36 11 56 10 56 66 118 66 73z m135
-77 c1 -15 6 -32 13 -39 18 -18 14 -46 -7 -58 -22 -11 -97 -12 -154 -2 l-37 7
24 35 c24 36 119 93 146 88 9 -2 15 -15 15 -31z m-1257 -98 c2 -19 -5 -54 -16
-78 l-18 -44 -32 48 c-18 27 -32 59 -32 73 0 21 4 24 25 20 14 -3 30 1 36 9
18 21 34 10 37 -28z m82 -9 c0 -12 -7 -34 -15 -49 -14 -29 -74 -85 -82 -78 -8
9 39 110 60 128 29 24 37 24 37 -1z m970 -24 c0 -16 -50 -79 -57 -72 -2 2 5
22 17 45 20 41 40 54 40 27z m137 -13 c33 -15 52 -45 33 -51 -6 -2 -15 -15
-20 -28 -5 -13 -14 -24 -20 -24 -16 0 -51 41 -78 89 l-24 42 39 -7 c21 -3 52
-13 70 -21z m-91 -70 c7 -40 -8 -83 -31 -83 -12 0 -15 13 -15 63 0 35 3 67 7
70 11 12 32 -14 39 -50z m-989 23 c-3 -11 -63 -45 -81 -46 -6 0 5 15 23 34 31
32 67 39 58 12z m-190 -12 c19 -14 32 -28 29 -31 -7 -7 -76 39 -76 50 0 13 12
8 47 -19z m-20 -520 c6 -52 -14 -143 -39 -177 -11 -15 -13 -9 -14 40 -1 49 -9
75 -53 163 -52 103 -53 106 -49 181 3 41 8 81 12 87 13 21 136 -234 143 -294z
m843 291 c20 -24 3 -55 -30 -55 -20 0 -31 6 -35 20 -8 25 10 50 35 50 10 0 23
-7 30 -15z m-533 -82 c-50 -129 -147 -283 -178 -283 -13 0 0 125 16 166 18 43
70 100 129 140 28 19 52 34 53 34 1 0 -8 -26 -20 -57z m246 -189 c53 -4 97
-10 97 -14 0 -14 -48 -50 -95 -71 -44 -20 -58 -21 -139 -13 -50 4 -123 8 -163
8 -68 1 -71 2 -56 18 38 43 177 91 233 82 14 -2 69 -7 123 -10z"/>
<path d="M3490 9545 c-28 -34 1 -131 66 -218 l35 -49 -53 -84 c-129 -205 -316
-354 -503 -398 -222 -53 -279 -65 -282 -62 -2 2 46 43 107 91 131 104 189 166
225 239 25 52 27 53 54 43 37 -14 65 -3 58 23 -5 20 -5 20 20 0 29 -22 82 -27
101 -8 18 18 15 63 -5 81 -10 8 -31 19 -46 22 -28 7 -28 8 -7 22 29 20 43 59
30 84 -15 26 -47 24 -87 -7 l-33 -25 0 49 c0 62 -18 89 -48 73 -24 -13 -52
-60 -52 -87 0 -15 -2 -16 -17 -2 -31 26 -55 30 -74 12 -29 -26 -23 -62 16
-101 31 -31 33 -37 20 -47 -14 -10 -14 -13 0 -33 8 -12 29 -24 45 -28 33 -7
34 -17 3 -80 -16 -32 -207 -225 -222 -225 -6 0 -3 17 6 38 25 59 19 133 -16
208 -33 71 -37 94 -20 126 7 12 7 24 1 30 -14 14 -73 -138 -79 -202 -5 -48 -1
-64 26 -118 17 -34 31 -72 31 -85 0 -24 -28 -56 -69 -77 -18 -9 -20 -14 -11
-20 9 -6 -28 -28 -111 -68 -124 -60 -280 -163 -374 -246 l-50 -45 3 39 c3 26
-5 61 -24 107 -39 94 -40 210 -2 300 35 85 102 194 109 180 4 -7 17 -68 29
-136 16 -88 21 -141 16 -184 -6 -58 -37 -137 -72 -184 -9 -13 -12 -23 -6 -23
13 0 67 87 80 130 24 80 24 126 -3 281 -15 85 -29 160 -31 168 -3 8 -24 -18
-50 -60 -70 -113 -93 -163 -110 -239 -19 -83 -9 -166 32 -258 18 -41 23 -66
19 -90 -4 -20 -44 -82 -100 -156 -176 -231 -240 -350 -320 -588 -78 -233 -105
-401 -105 -651 0 -125 3 -165 17 -195 12 -27 16 -61 14 -127 -3 -126 -47 -646
-77 -915 -43 -378 -24 -651 66 -950 22 -74 36 -136 32 -139 -10 -7 -59 -469
-68 -638 l-7 -123 -52 70 c-29 39 -58 90 -65 114 -11 39 -10 52 9 108 34 102
42 164 31 231 -17 108 -43 101 -84 -25 -29 -87 -34 -179 -11 -243 8 -21 13
-40 12 -42 -2 -1 -38 43 -80 99 -51 67 -77 110 -77 127 0 14 14 64 30 111 24
67 30 102 30 167 0 94 -13 141 -34 124 -7 -6 -26 -39 -42 -74 -27 -58 -29 -71
-29 -184 0 -68 -1 -123 -2 -123 -1 0 -30 42 -64 92 -60 91 -61 94 -56 148 3
36 19 85 47 142 42 86 62 183 46 224 -6 15 -10 14 -37 -12 -44 -42 -86 -137
-101 -229 l-14 -80 -33 90 c-18 50 -38 113 -44 141 l-11 52 44 48 c52 60 90
141 90 194 0 22 -3 40 -6 40 -35 0 -100 -95 -124 -183 l-17 -61 -17 91 c-15
74 -16 101 -7 142 17 80 13 164 -9 225 -26 68 -45 77 -61 29 -15 -47 -7 -199
13 -238 37 -72 32 -81 -17 -27 -57 64 -102 91 -111 68 -9 -24 31 -80 106 -148
67 -60 70 -66 84 -131 l14 -68 -57 54 c-31 30 -71 62 -88 71 -41 21 -83 21
-83 0 0 -27 94 -108 167 -143 69 -33 70 -35 88 -90 9 -31 30 -85 46 -120 16
-35 29 -65 29 -65 0 -1 -24 20 -53 46 -64 60 -141 98 -213 105 -68 7 -71 -9
-13 -72 55 -60 131 -96 211 -100 57 -4 65 -7 89 -37 46 -60 160 -228 154 -228
-3 0 -42 21 -86 46 -91 53 -153 74 -216 74 -54 0 -56 -16 -6 -60 55 -49 126
-77 237 -95 55 -9 107 -20 117 -26 10 -5 49 -46 86 -92 104 -126 101 -121 52
-92 -74 42 -162 65 -255 65 -46 0 -84 -4 -84 -9 0 -18 58 -65 110 -89 46 -22
75 -27 179 -32 139 -6 129 -1 205 -115 32 -48 34 -54 40 -180 13 -246 43 -570
72 -760 l6 -40 -34 55 c-18 30 -38 61 -42 69 -7 11 -5 13 8 8 14 -6 16 -3 10
16 -11 37 -64 138 -112 216 l-45 73 18 89 c18 89 16 137 -6 207 -6 17 -14 32
-19 32 -5 0 -16 -21 -26 -47 -19 -50 -25 -151 -12 -213 l8 -35 -50 55 c-51 57
-75 111 -86 191 -6 44 -4 49 34 91 49 53 68 94 51 114 -16 19 -33 17 -54 -7
-19 -20 -19 -20 -42 25 -40 80 -98 46 -75 -43 9 -38 8 -40 -8 -31 -24 13 -57
13 -65 0 -10 -16 24 -69 55 -85 16 -8 40 -15 54 -15 22 0 25 -5 31 -52 4 -29
11 -63 16 -76 7 -17 6 -21 -4 -15 -34 20 -209 168 -261 218 l-58 58 28 15 c40
20 54 40 54 78 0 35 -22 59 -45 50 -18 -7 -18 -7 0 37 18 44 20 108 3 125 -28
28 -96 2 -99 -39 0 -8 -7 2 -16 21 -22 51 -42 70 -75 70 -55 0 -70 -85 -33
-183 6 -15 4 -16 -20 -7 -66 25 -155 -3 -155 -49 0 -30 39 -70 80 -82 l38 -12
-30 -25 c-82 -69 -61 -175 28 -142 16 6 39 21 52 32 l22 21 0 -24 c0 -47 37
-62 89 -35 46 24 67 107 40 158 -6 11 22 -15 63 -57 40 -43 112 -109 161 -148
48 -38 87 -71 87 -74 0 -2 -5 -1 -10 2 -6 4 -40 7 -76 6 -53 0 -76 -6 -125
-32 -33 -18 -58 -37 -56 -43 7 -21 145 -19 210 4 89 29 106 27 154 -22 88 -92
190 -234 240 -332 l25 -50 -50 45 c-59 53 -154 106 -226 125 -52 14 -217 19
-229 7 -8 -8 101 -82 182 -123 38 -20 100 -38 168 -51 125 -24 136 -31 187
-128 61 -117 69 -167 70 -426 0 -220 -1 -242 -41 -510 -69 -456 -97 -779 -74
-823 11 -20 1 -38 -112 -190 -204 -274 -238 -332 -337 -584 -34 -84 -95 -220
-136 -301 -41 -82 -69 -147 -63 -145 21 7 131 227 203 405 98 241 162 360 273
508 270 362 533 741 633 915 23 41 71 122 106 180 34 58 77 140 93 182 35 86
50 168 33 168 -19 0 -42 -44 -82 -157 -57 -161 -86 -223 -106 -223 -44 0 25
426 137 850 17 63 59 201 94 305 93 280 412 1066 478 1176 58 96 97 188 111
261 51 252 -29 606 -171 753 -26 28 -79 78 -117 111 -62 56 -67 63 -57 83 19
34 85 70 199 107 59 19 110 40 114 47 5 7 17 41 28 77 35 117 99 193 189 225
22 8 87 18 144 23 84 8 115 16 165 41 34 17 83 34 109 38 26 3 89 26 141 51
65 30 111 46 150 49 91 7 414 -63 479 -105 7 -4 24 -50 37 -102 14 -52 51
-165 84 -250 66 -175 82 -232 111 -410 30 -180 55 -225 204 -373 66 -65 134
-126 151 -135 50 -27 229 -24 326 7 107 33 220 89 343 170 59 39 110 71 113
71 2 0 0 -8 -5 -19 -18 -32 -31 -108 -41 -235 -13 -153 0 -364 35 -606 14 -96
30 -251 36 -345 11 -157 10 -192 -15 -455 -15 -157 -31 -311 -36 -344 -16
-107 14 -292 60 -371 10 -16 30 -66 45 -110 40 -118 100 -242 124 -254 17 -9
21 -9 21 2 0 22 -44 124 -112 257 -106 207 -148 388 -119 515 6 25 8 20 14
-34 4 -35 7 -79 7 -98 0 -20 4 -32 10 -28 6 4 7 50 3 124 -3 65 -3 130 1 145
9 36 71 103 117 127 45 22 92 24 174 4 122 -30 212 -17 298 42 47 33 48 47 2
39 -25 -5 -68 1 -138 19 -74 20 -115 25 -152 21 -75 -8 -185 -67 -239 -127
-25 -28 -46 -46 -46 -39 0 7 14 53 31 103 52 156 114 245 220 316 130 87 322
110 344 41 15 -49 98 -120 140 -120 60 0 -56 139 -135 160 -70 19 -73 20 -69
24 2 3 58 9 124 16 141 13 218 31 293 69 l55 28 44 -44 c34 -34 50 -44 71 -41
38 4 39 32 4 68 -35 35 -24 54 27 44 27 -6 31 -4 31 15 0 14 -6 21 -20 21 -19
0 -20 1 -4 25 15 23 15 25 -1 31 -9 4 -27 2 -41 -4 -25 -12 -32 -4 -13 15 15
15 -6 26 -36 19 -29 -7 -55 -53 -55 -95 0 -27 -7 -34 -47 -54 -75 -38 -171
-65 -267 -76 -49 -6 -91 -9 -93 -7 -2 2 16 16 39 31 67 45 172 130 201 165 27
31 55 105 44 116 -24 25 -136 -80 -162 -151 -31 -87 -135 -158 -275 -189 -80
-18 -162 -52 -211 -86 -88 -64 27 77 245 298 236 240 354 322 539 377 l50 15
-21 -23 c-24 -25 -27 -52 -12 -91 13 -36 43 -33 77 9 l29 35 1 -51 c2 -66 16
-84 52 -65 14 8 34 17 44 20 21 7 22 35 3 81 -14 34 -14 34 9 23 32 -14 71 -3
91 27 14 22 15 29 3 58 -8 17 -14 50 -14 72 0 38 -2 40 -32 43 -23 2 -40 -5
-67 -28 l-35 -31 15 45 c8 24 14 59 12 78 -3 31 -5 33 -40 32 -63 -2 -68 -7
-68 -69 l0 -56 -26 20 c-35 28 -62 26 -75 -3 -17 -37 -3 -75 33 -90 l31 -14
-59 -17 c-76 -22 -209 -84 -271 -126 l-48 -33 19 29 c58 88 101 172 142 279
26 65 59 133 75 151 19 21 57 44 107 64 82 33 152 82 152 107 0 11 -7 13 -27
8 -95 -23 -203 -79 -203 -106 0 -6 11 -1 24 11 22 21 141 71 168 71 23 0 -44
-42 -114 -71 -40 -17 -80 -37 -89 -45 -26 -24 -28 -16 -8 47 10 33 19 72 19
85 0 24 25 72 45 86 5 4 34 15 62 23 65 19 123 73 123 113 0 44 -21 66 -58 60
-30 -4 -32 -3 -32 29 0 27 -5 34 -26 39 -14 4 -42 2 -61 -4 -26 -8 -42 -7 -68
4 -19 7 -41 11 -50 8 -18 -7 -30 -46 -22 -74 6 -24 6 -24 -35 -1 -24 14 -39
17 -55 10 -28 -10 -29 -29 -2 -63 15 -19 17 -26 7 -26 -8 0 -23 -6 -33 -14
-30 -22 -6 -40 86 -67 89 -26 99 -37 99 -109 0 -38 -19 -102 -78 -267 l-29
-82 -7 77 c-4 42 -11 95 -17 117 -13 55 -80 185 -95 185 -17 0 -25 -84 -14
-137 6 -25 29 -81 52 -124 57 -109 61 -164 20 -245 -50 -98 -145 -222 -268
-349 -65 -66 -113 -111 -109 -100 52 135 58 169 63 348 l4 177 42 19 c78 34
125 121 69 129 -14 2 -23 11 -25 25 -4 31 -43 35 -59 6 l-12 -23 -14 28 c-17
32 -42 31 -59 -1 -8 -17 -13 -20 -22 -11 -9 9 -17 7 -32 -7 -42 -38 -12 -112
55 -136 l35 -13 3 -86 c4 -136 -1 -218 -17 -297 -18 -86 -73 -209 -106 -238
-16 -14 -22 -16 -18 -5 33 93 42 144 43 240 l0 105 -58 125 c-33 69 -67 147
-76 173 -10 26 -22 49 -26 50 -16 4 -47 -109 -52 -190 -7 -106 4 -147 84 -316
80 -167 81 -193 12 -291 -158 -227 -210 -323 -241 -449 -12 -48 -22 -86 -23
-85 -2 2 4 73 12 158 22 240 13 541 -26 800 -17 113 -34 273 -37 355 -9 202
16 433 50 481 13 17 16 17 73 1 139 -39 258 -2 310 97 17 33 19 196 3 226 -6
10 -10 41 -10 67 0 57 -11 75 -63 106 -21 13 -48 41 -61 63 -31 56 -86 73
-167 50 -74 -20 -117 -20 -180 0 -45 15 -51 15 -75 0 -14 -10 -29 -27 -33 -38
-13 -35 -24 -3 -23 66 0 39 11 96 31 158 16 53 33 114 37 134 5 28 24 55 73
104 36 36 73 69 82 72 8 3 53 0 100 -8 126 -20 252 -16 340 11 12 4 49 -33
127 -127 117 -141 403 -419 509 -495 34 -24 100 -60 145 -78 138 -56 239 -63
303 -21 32 21 95 147 130 259 15 48 30 86 32 83 2 -2 4 -68 4 -147 0 -126 -3
-155 -26 -234 -34 -118 -79 -212 -148 -308 -31 -42 -53 -77 -49 -77 4 0 0 -5
-8 -10 -9 -6 -10 -10 -3 -10 51 -1 207 189 283 345 127 259 158 494 116 890
-21 210 -23 278 -8 410 22 198 17 273 -24 394 -20 58 -66 169 -102 246 -157
340 -178 429 -213 875 -12 168 -20 219 -55 353 -57 223 -166 401 -281 460 -47
25 -105 37 -122 27 -14 -8 -13 -9 4 -10 48 0 122 -38 177 -88 97 -90 161 -218
212 -422 30 -121 41 -212 56 -435 13 -196 30 -300 71 -430 31 -100 96 -259
151 -368 55 -110 54 -113 -8 -60 -75 64 -130 143 -154 220 -11 35 -29 132 -40
216 -73 527 -131 752 -229 884 -44 61 -108 105 -146 101 -48 -5 -46 -43 9
-136 25 -42 46 -69 46 -59 0 10 -15 41 -34 70 -66 100 -55 142 26 94 83 -49
157 -177 203 -350 25 -94 80 -411 110 -637 10 -69 25 -151 35 -183 23 -72 13
-65 -68 46 -102 141 -133 217 -133 326 0 114 -20 134 -80 84 -78 -66 -101
-195 -54 -308 32 -76 42 -140 25 -160 -21 -25 -83 -17 -171 21 -46 19 -85 37
-87 39 -3 2 7 23 21 47 13 24 34 78 46 120 11 43 54 146 96 230 80 164 105
246 105 346 0 98 -28 163 -106 244 l-67 69 9 82 c14 127 10 246 -10 291 -10
23 -20 36 -25 30 -5 -5 -11 -76 -14 -159 -2 -82 -10 -165 -17 -183 -24 -64
-72 -72 -275 -47 -157 20 -221 19 -293 -4 -81 -25 -117 -53 -154 -118 -17 -30
-55 -75 -87 -101 -128 -107 -186 -192 -230 -335 -31 -100 -88 -378 -103 -497
-20 -162 -16 -514 7 -705 15 -120 20 -222 20 -408 0 -142 3 -235 8 -220 16 56
12 441 -6 598 -10 83 -21 218 -24 300 -6 159 4 413 16 398 4 -4 20 -40 35 -80
56 -146 158 -263 264 -303 63 -24 112 -25 177 -5 27 8 51 13 53 11 8 -8 -156
-299 -222 -393 -154 -221 -190 -297 -172 -368 10 -38 42 -50 73 -28 74 52 78
54 124 50 60 -5 125 -37 180 -88 l44 -41 -25 -11 c-31 -12 -247 -15 -355 -3
l-80 8 -55 -56 c-30 -31 -57 -56 -61 -56 -3 0 -3 19 2 43 4 23 10 101 13 172
2 72 2 112 0 90 -10 -95 -35 -292 -40 -310 -4 -17 -62 -65 -78 -65 -3 0 6 33
20 73 71 206 80 335 38 552 -67 346 -67 350 -67 570 -1 230 15 354 73 584 87
347 201 573 339 675 121 88 257 124 521 135 146 6 183 11 222 29 87 38 86 95
0 135 -41 19 -65 22 -177 22 l-130 -1 -185 -63 c-354 -122 -457 -175 -558
-286 -52 -56 -110 -159 -136 -240 -24 -76 -56 -242 -56 -294 0 -50 -33 -139
-70 -191 -26 -36 -90 -70 -135 -70 -16 0 -61 12 -100 26 -285 106 -359 124
-510 124 -146 0 -312 -52 -441 -140 -35 -23 -42 -25 -34 -11 33 63 205 165
330 198 102 26 265 22 445 -11 246 -45 337 -35 414 49 57 62 131 221 118 258
-2 6 -10 -6 -17 -28 -46 -143 -117 -241 -198 -272 -63 -24 -145 -21 -322 13
-346 66 -567 19 -742 -156 -106 -105 -105 -130 1 -66 102 62 224 116 301 132
93 20 263 15 369 -11 66 -16 72 -19 56 -31 -14 -10 -17 -23 -13 -57 15 -132
160 -282 341 -352 34 -13 43 -24 87 -117 94 -197 189 -529 205 -718 7 -83 -6
-196 -32 -279 -13 -42 -34 -72 -95 -138 -91 -98 -98 -126 -36 -131 22 -2 56 5
83 17 25 11 45 19 45 18 0 -2 -10 -30 -22 -62 -19 -50 -22 -81 -23 -187 0 -71
-3 -128 -7 -128 -19 0 -69 90 -87 158 -20 77 -120 632 -114 632 2 0 17 -7 32
-14 106 -55 246 -6 197 69 -26 40 -67 30 -146 -34 -39 -32 -4 -24 42 9 46 33
75 35 92 7 16 -26 -24 -57 -75 -57 -74 0 -145 37 -238 122 -147 137 -183 153
-369 168 -116 9 -134 13 -207 49 -85 41 -218 135 -274 195 -72 75 -77 39 -18
-129 28 -77 44 -153 69 -327 19 -126 32 -228 30 -228 -9 0 -183 375 -202 436
-33 106 -36 187 -11 261 38 112 24 203 -38 256 -66 55 -114 48 -187 -27 -74
-76 -95 -173 -53 -251 21 -39 21 -44 3 -142 -5 -28 -3 -33 14 -33 11 0 33 15
48 33 17 21 36 32 52 32 18 0 33 10 49 33 64 95 84 237 40 288 -55 63 -152 2
-172 -108 -10 -53 8 -47 23 7 15 58 59 108 96 108 46 -1 61 -25 60 -96 -1
-100 -65 -235 -98 -208 -11 9 -21 3 -49 -31 -20 -23 -39 -40 -42 -36 -4 4 -1
30 6 57 12 47 11 54 -9 94 -47 95 -10 222 82 278 39 24 73 24 112 0 74 -45 85
-156 28 -291 -20 -47 -49 -119 -65 -160 -45 -113 -103 -160 -161 -129 -11 6
-22 9 -24 6 -3 -2 -8 -58 -13 -124 -10 -142 -30 -200 -31 -88 0 39 -9 136 -21
215 -30 212 -14 359 53 468 29 47 15 52 -16 5 -34 -51 -52 -105 -66 -199 -13
-88 -9 -166 22 -354 21 -133 19 -211 -7 -258 -39 -72 -89 -106 -178 -122 -28
-6 -81 -24 -117 -42 -51 -24 -88 -33 -181 -43 -76 -9 -130 -20 -155 -33 -81
-42 -162 -154 -179 -245 -7 -35 -10 -38 -32 -32 -69 17 -110 77 -143 205 -25
98 -52 155 -146 307 -137 221 -158 290 -133 453 l13 90 34 6 c42 8 108 0 128
-16 17 -15 15 -28 -28 -214 -34 -150 -32 -182 14 -221 27 -23 39 -26 75 -22
24 2 50 10 59 18 9 7 34 12 57 11 23 -2 58 2 77 8 19 6 73 15 120 20 150 16
197 -9 235 -127 31 -94 40 -92 88 17 16 37 49 80 101 132 113 113 153 214 163
413 4 83 1 127 -11 180 -23 96 -52 136 -132 181 -36 20 -74 46 -85 57 -23 25
-25 87 -4 147 30 86 14 145 -52 190 -31 21 -50 25 -162 30 -148 7 -161 12
-210 97 -68 115 -158 183 -242 183 -52 0 -48 17 12 47 69 36 154 47 241 33 56
-10 102 -28 198 -78 247 -129 277 -140 325 -122 51 19 55 93 7 132 -13 11 -13
8 1 -19 10 -18 17 -41 17 -51 0 -23 -30 -52 -53 -52 -35 0 -114 34 -222 96
-149 85 -235 114 -340 114 -95 0 -172 -20 -215 -56 -37 -31 -40 -64 -7 -64 13
0 47 -7 76 -16 58 -17 126 -77 191 -168 59 -83 74 -90 213 -96 201 -9 247 -56
202 -204 -33 -109 -15 -154 86 -207 113 -61 149 -137 149 -320 -1 -207 -52
-344 -170 -452 -57 -52 -76 -76 -100 -133 -17 -40 -31 -63 -34 -54 -3 8 -10
33 -15 56 -14 54 -50 106 -85 122 -37 18 -164 16 -279 -3 -49 -9 -91 -14 -94
-11 -2 2 9 7 26 10 17 3 45 9 61 12 27 5 43 24 21 24 -42 0 -118 -25 -152 -50
-57 -41 -98 -40 -134 2 -32 38 -31 51 11 228 34 141 35 219 6 276 -41 80 -125
125 -197 105 -19 -5 -35 -9 -35 -8 0 1 9 36 20 77 22 82 26 135 10 125 -5 -3
-10 -18 -10 -33 0 -15 -9 -56 -20 -90 -27 -87 -26 -140 4 -185 46 -67 46 -69
30 -161 -27 -157 -1 -250 125 -450 88 -140 128 -224 155 -324 13 -49 30 -101
39 -118 20 -38 65 -80 102 -94 29 -12 28 -13 -72 -45 -123 -39 -191 -77 -207
-116 -12 -28 -15 -21 -99 188 -108 271 -112 282 -147 424 -56 220 -90 569 -63
636 18 44 16 104 -3 153 -34 84 5 149 122 206 81 40 111 66 255 224 112 123
119 134 119 195 0 38 -5 52 -29 76 -16 16 -40 29 -53 29 -20 0 -23 5 -24 44
-1 63 -33 101 -118 141 -39 19 -88 48 -108 66 -49 42 -108 49 -173 20 -37 -16
-60 -20 -91 -15 -50 7 -83 -11 -115 -62 -11 -19 -39 -44 -61 -55 -33 -17 -45
-32 -70 -87 -17 -37 -48 -97 -70 -134 -58 -98 -77 -157 -98 -302 -22 -145 -24
-185 -12 -170 5 5 19 79 31 164 20 143 25 161 66 240 24 47 63 124 86 172 37
76 47 89 76 99 19 6 41 23 50 37 9 15 28 40 42 55 24 26 30 27 77 21 41 -5 59
-2 92 15 66 34 112 28 167 -19 26 -23 76 -54 111 -70 97 -44 131 -114 79 -166
-20 -20 -34 -25 -63 -22 -34 3 -37 6 -40 36 -3 34 -22 45 -22 13 0 -34 12 -53
44 -67 l31 -13 -34 -1 c-19 0 -43 7 -53 17 -15 13 -18 14 -18 2 0 -42 66 -52
130 -19 21 11 41 24 45 30 11 17 64 11 85 -10 15 -15 20 -33 20 -70 0 -48 -3
-52 -82 -142 -149 -167 -215 -228 -281 -257 -86 -39 -122 -72 -137 -126 -10
-36 -16 -45 -29 -39 -76 32 -118 45 -140 42 -26 -3 -26 -4 -31 -103 -4 -62 -2
-104 5 -111 5 -6 36 -16 68 -22 32 -7 73 -19 91 -27 l33 -16 6 -135 c16 -330
76 -568 244 -969 l58 -140 0 -170 c0 -93 2 -176 3 -182 5 -28 43 -13 58 22 24
59 19 130 -22 272 -5 17 4 13 43 -20 185 -160 246 -266 288 -504 38 -221 5
-425 -93 -578 -43 -67 -92 -175 -217 -480 -251 -610 -339 -871 -434 -1290 -61
-272 -91 -447 -91 -536 0 -66 4 -75 33 -70 15 2 5 -20 -65 -135 -130 -217
-396 -604 -420 -613 -27 -9 13 457 72 833 40 260 53 411 46 536 l-5 105 20
-70 c23 -79 33 -95 61 -95 29 0 56 71 73 192 46 324 -21 682 -191 1027 l-67
134 5 146 c5 146 43 550 57 606 7 28 8 27 21 -26 29 -129 83 -185 216 -227
127 -39 199 -47 444 -47 226 0 403 16 416 37 7 11 0 10 -117 -8 -132 -21 -526
-15 -634 10 -162 37 -217 62 -258 117 -10 15 -41 100 -68 190 -138 461 -154
647 -99 1156 34 320 70 753 70 846 0 35 3 66 6 69 3 3 24 -5 47 -18 48 -27
105 -31 145 -10 126 65 151 288 42 366 -41 29 -107 37 -147 17 -45 -24 -101
-91 -113 -137 -6 -23 -13 -40 -16 -37 -8 8 15 342 31 427 53 301 195 627 334
773 78 81 138 121 206 136 61 14 79 9 169 -53 36 -25 82 -48 101 -52 42 -7
142 -1 152 10 12 12 -77 86 -137 114 -35 17 -79 28 -120 30 l-65 5 105 23 c58
13 123 30 145 39 23 8 58 15 79 15 33 0 46 -8 102 -64 36 -37 64 -73 64 -84 0
-26 26 -52 50 -52 24 0 50 26 50 50 0 29 -43 54 -69 41 -17 -10 -24 -6 -47 25
-16 20 -48 52 -74 71 l-45 35 165 -7 c91 -4 173 -11 183 -17 57 -30 114 30 70
74 -27 27 -69 18 -85 -18 l-12 -25 -160 7 c-89 3 -162 7 -163 8 -6 5 140 115
148 110 5 -3 21 2 34 10 27 18 34 63 13 84 -32 32 -95 -6 -86 -52 5 -27 -12
-48 -113 -128 -63 -50 -148 -83 -309 -118 -105 -23 -196 -63 -265 -116 -70
-53 -41 -11 73 104 126 129 225 201 397 287 303 153 376 152 660 -10 83 -47
160 -88 173 -91 28 -8 28 -12 -3 -36 -31 -24 -33 -58 -4 -65 14 -4 18 -11 14
-22 -4 -9 -9 -37 -12 -62 -5 -45 11 -79 38 -79 21 0 59 50 59 77 l1 28 27 -33
c57 -68 137 -17 86 56 -15 22 -14 22 25 22 34 0 71 19 71 36 0 21 -27 45 -65
60 l-46 17 30 18 c55 33 63 83 16 95 -31 8 -59 -2 -96 -33 -28 -24 -32 -25
-41 -10 -19 35 -68 7 -68 -39 0 -13 -4 -24 -8 -24 -5 0 -64 32 -131 70 -157
90 -225 125 -279 140 -23 7 -41 15 -39 17 2 2 39 13 83 25 74 21 100 23 384
23 205 1 314 5 332 13 31 13 36 9 66 -60 20 -45 52 -74 67 -60 4 4 23 7 43 7
28 0 39 5 49 25 6 13 22 28 34 32 19 7 21 13 15 48 -3 22 -2 41 4 45 16 10 12
42 -6 49 -9 3 -29 6 -45 6 -22 0 -29 5 -29 19 0 36 -18 32 -82 -18 -102 -78
-119 -84 -243 -88 l-110 -4 65 36 c35 19 84 54 108 78 42 40 116 140 128 172
9 24 -28 19 -99 -13 -75 -34 -129 -92 -161 -172 -33 -82 -48 -87 -247 -92
l-167 -4 56 33 c81 49 159 115 220 186 51 60 68 83 126 175 21 33 31 42 44 36
33 -14 216 -25 240 -14 33 15 27 60 -11 78 l-29 14 26 27 c32 33 33 58 4 66
-13 3 -32 10 -43 15 -11 4 -28 11 -37 14 -12 3 -18 16 -18 35 0 16 -8 39 -19
52 -16 21 -22 22 -45 11 -18 -8 -34 -9 -51 -2 -20 8 -29 6 -45 -10 -19 -19
-20 -19 -30 0 -13 24 -52 26 -70 5z m58 -18 c6 -6 12 -49 14 -95 l3 -83 -23
28 c-42 53 -58 163 -23 163 10 0 23 -6 29 -13z m90 1 c9 -9 18 -9 38 1 33 15
54 0 54 -38 0 -39 18 -56 73 -71 26 -7 47 -16 47 -20 0 -16 -79 -78 -111 -88
-61 -19 -89 -23 -89 -13 0 5 5 13 10 16 15 9 12 45 -3 45 -7 0 -22 -7 -33 -15
-20 -13 -22 -12 -33 24 -16 54 -14 123 5 149 17 25 25 27 42 10z m-492 -194
c-10 -108 -8 -104 -38 -77 -30 27 -20 122 16 145 20 13 28 -10 22 -68z m-103
-22 c28 -29 45 -92 25 -92 -22 0 -75 40 -87 66 -9 20 -9 30 0 40 17 21 32 17
62 -14z m597 3 c-7 -9 -15 -13 -18 -10 -3 2 1 11 8 20 7 9 15 13 18 10 3 -2
-1 -11 -8 -20z m-363 -2 c9 -22 -58 -83 -92 -83 -36 0 -32 23 12 65 39 38 70
45 80 18z m573 -18 c7 -8 9 -22 6 -31 -5 -14 -19 -15 -104 -9 -121 9 -136 16
-57 28 27 4 35 3 25 -3 -11 -7 -12 -10 -2 -10 8 0 25 9 39 20 30 24 75 26 93
5z m-696 -91 c10 -27 7 -34 -19 -34 -18 0 -25 5 -25 18 0 34 33 45 44 16z
m145 -15 c12 -12 20 -28 17 -36 -3 -8 -6 -17 -6 -19 0 -2 -14 -4 -30 -4 -33 0
-90 36 -90 56 0 30 78 32 109 3z m-221 -11 c17 -17 15 -28 -6 -28 -11 0 -27 9
-37 20 -18 19 -17 20 6 20 14 0 30 -5 37 -12z m91 -27 c8 -5 11 -16 7 -26 -6
-15 -9 -16 -28 -3 -12 8 -24 20 -26 26 -4 14 27 16 47 3z m-365 -58 c43 -85
51 -126 37 -188 -7 -30 -16 -57 -21 -60 -15 -9 -70 125 -70 172 0 41 18 123
26 123 2 0 14 -21 28 -47z m995 -32 c-34 -61 -103 -135 -159 -171 -28 -18 -53
-30 -56 -28 -7 8 33 96 62 133 28 37 78 72 129 92 46 18 48 16 24 -26z m165
-136 c-4 -9 -15 -20 -25 -26 -25 -13 -24 -36 1 -49 27 -14 25 -24 -6 -39 -26
-12 -27 -19 -8 -66 7 -17 6 -18 -8 -7 -14 11 -17 10 -20 -10 -4 -20 -6 -18
-22 17 -10 22 -24 52 -31 67 -12 25 -11 28 28 60 38 31 89 68 94 68 1 0 0 -7
-3 -15z m86 -50 c0 -8 -5 -15 -11 -15 -8 0 -9 -13 -5 -39 5 -34 3 -41 -15 -46
-11 -4 -24 -18 -29 -31 -15 -37 -39 -27 -54 23 -6 19 -2 25 18 33 31 11 34 35
6 52 -36 23 -20 35 53 37 27 1 37 -3 37 -14z m2705 -138 c0 -62 -4 -139 -9
-173 l-8 -61 64 -74 c36 -41 73 -90 83 -109 23 -45 31 -154 16 -230 -13 -65
-59 -183 -92 -237 l-21 -34 -22 20 c-56 53 -200 70 -264 31 -55 -34 -122 -162
-122 -234 0 -12 -5 -38 -11 -59 -8 -29 -18 -40 -46 -52 -53 -22 -71 -19 -93
18 -14 24 -32 38 -60 46 -44 13 -51 32 -23 63 13 15 14 18 2 18 -46 0 -53 -63
-10 -88 16 -9 36 -29 45 -43 19 -32 75 -54 116 -46 24 5 27 3 23 -13 -9 -34
22 -65 106 -109 45 -23 81 -44 81 -46 0 -3 -14 -11 -30 -20 -23 -12 -46 -14
-95 -9 -51 5 -70 3 -90 -10 -30 -20 -33 -56 -5 -81 11 -10 17 -22 13 -28 -3
-5 -62 -37 -132 -71 -120 -58 -129 -61 -201 -61 -88 1 -113 12 -193 85 -71 64
-106 121 -156 246 -45 114 -45 116 -1 329 69 338 121 441 293 578 26 21 58 59
71 85 68 134 179 163 471 126 141 -18 189 -15 229 17 37 29 49 87 48 233 -1
101 2 126 11 117 8 -8 12 -50 12 -124z m-184 1 c86 -25 103 -75 37 -109 -37
-19 -68 -24 -208 -30 -334 -17 -468 -58 -598 -183 -135 -129 -223 -323 -311
-683 -50 -205 -65 -328 -65 -538 0 -201 5 -246 60 -527 49 -249 49 -332 1
-505 -53 -188 -57 -196 -114 -220 -26 -12 -63 -24 -80 -28 -28 -6 -33 -4 -33
12 0 10 18 37 41 58 82 80 126 150 144 227 19 85 22 241 5 343 -29 179 -123
484 -195 631 l-41 84 37 0 c44 0 79 31 98 87 8 23 16 127 21 258 6 146 14 240
24 280 10 36 14 78 11 105 -8 59 33 201 82 290 70 124 184 222 333 283 142 59
394 147 462 162 78 17 238 19 289 3z m-3703 -127 c5 -30 -10 -45 -37 -36 -21
6 -29 43 -14 59 15 15 48 1 51 -23z m787 -2 c16 -24 -53 -72 -118 -82 l-37 -6
27 35 c40 54 110 83 128 53z m-159 -34 c4 -8 -2 -27 -11 -42 -16 -24 -18 -24
-27 -8 -7 11 -7 25 1 41 12 27 29 31 37 9z m24 -87 c0 -6 7 -20 17 -30 9 -10
11 -18 5 -18 -6 0 -17 9 -25 20 -16 24 -30 15 -17 -11 6 -9 23 -20 40 -24 53
-12 88 -77 56 -104 -11 -9 -20 -6 -44 14 -32 27 -78 126 -68 150 6 18 36 20
36 3z m150 -13 c18 -16 19 -20 6 -33 -24 -24 -75 -17 -107 14 -16 15 -29 32
-29 37 0 17 108 2 130 -18z m-220 8 c0 -5 -9 -19 -20 -33 -18 -23 -19 -24 -26
-6 -5 13 -1 23 11 32 21 15 35 18 35 7z m-352 -40 c4 -30 -31 -49 -52 -27 -18
18 -18 17 -10 39 10 25 58 16 62 -12z m382 -41 c12 -51 4 -88 -24 -111 -22
-18 -36 -5 -36 33 0 37 28 126 40 126 4 0 13 -22 20 -48z m-1005 -117 c45 -18
145 -84 145 -95 0 -15 -77 -22 -118 -11 -22 6 -70 32 -107 57 -37 26 -79 50
-94 54 -18 6 0 9 57 9 51 1 96 -4 117 -14z m420 -35 c0 -29 -34 -40 -54 -17
-9 12 -8 18 5 31 23 24 49 16 49 -14z m3820 -399 c69 -31 74 -44 41 -107 -16
-30 -32 -54 -36 -54 -5 0 -17 16 -29 36 -29 48 -97 79 -160 70 -71 -10 -76
-27 -5 -20 74 8 105 -6 157 -70 36 -43 37 -47 28 -88 -10 -45 -25 -81 -53
-134 l-17 -32 -98 34 c-54 19 -117 34 -141 34 -42 0 -42 0 -28 23 8 12 19 49
25 82 19 119 73 217 131 238 36 13 146 6 185 -12z m296 -94 c5 -87 9 -104 47
-179 51 -103 221 -318 325 -411 121 -108 162 -220 137 -381 -6 -45 -15 -155
-20 -246 -13 -260 -62 -507 -161 -805 -78 -235 -121 -300 -205 -312 -83 -11
-277 62 -383 145 -101 78 -392 364 -488 480 -52 62 -93 115 -91 116 1 1 22 10
46 21 23 10 104 62 180 116 132 95 228 150 283 163 25 5 27 3 33 -36 9 -54 41
-126 69 -156 28 -31 95 -65 108 -56 7 4 9 0 6 -12 -4 -11 -9 -32 -13 -49 -4
-16 -24 -61 -45 -100 -20 -38 -43 -96 -49 -129 -13 -65 -6 -126 15 -126 15 0
21 14 30 75 3 22 15 79 27 127 17 75 29 100 80 170 78 110 140 235 192 392
l43 130 52 12 c47 10 91 37 91 54 0 4 -34 -4 -75 -18 l-76 -26 -122 14 c-160
19 -172 18 -318 -29 -165 -52 -197 -58 -205 -37 -10 25 9 41 114 97 121 64
162 95 162 119 0 26 -26 38 -110 50 -40 6 -77 13 -82 16 -6 4 -8 23 -5 43 2
20 0 47 -5 60 -13 35 7 54 51 46 26 -4 32 -3 21 4 -8 6 -24 11 -35 11 -32 0
-206 47 -258 69 -26 11 -59 32 -74 47 -26 26 -26 27 -8 40 30 22 83 17 276
-26 99 -22 187 -40 195 -40 43 0 -6 31 -183 116 -202 97 -243 124 -243 156 0
51 113 32 335 -56 90 -36 178 -66 195 -66 85 0 95 45 45 194 -29 87 -35 117
-29 150 13 79 76 174 109 163 5 -2 13 -47 16 -100z m-1661 -184 c-6 -209 -18
-255 -73 -281 -48 -23 -72 -9 -119 71 -58 99 -171 250 -216 287 l-37 31 55
-21 c122 -48 175 -61 215 -55 64 10 118 47 149 104 15 28 28 51 29 51 1 0 0
-84 -3 -187z m-449 78 c50 -32 79 -62 136 -141 55 -76 133 -203 128 -208 -7
-7 -149 70 -192 104 -72 59 -165 219 -150 259 9 22 27 19 78 -14z m1764 -395
c75 -39 74 -39 -83 1 l-103 26 27 18 c32 20 39 18 159 -45z m-268 -105 c26
-10 75 -24 108 -31 71 -14 82 -20 64 -31 -8 -4 -43 -1 -78 7 -78 18 -140 15
-155 -8 -18 -30 4 -69 56 -95 53 -27 202 -67 303 -83 39 -6 74 -15 79 -20 16
-16 -21 -45 -140 -110 -63 -34 -119 -70 -124 -80 -32 -60 10 -79 111 -52 41
11 83 23 93 27 17 7 18 5 12 -16 -4 -13 -10 -57 -13 -96 l-6 -73 -41 -11 c-66
-18 -122 -50 -278 -162 -81 -57 -166 -112 -188 -121 l-42 -16 -53 49 c-30 27
-76 59 -102 72 -59 29 -139 31 -174 6 -72 -52 -68 -50 -85 -36 -12 10 -15 25
-12 60 6 61 36 120 118 233 87 121 140 208 226 374 l69 134 80 40 c44 22 84
44 90 49 13 13 28 11 82 -10z m-4486 -74 c106 -70 86 -271 -33 -333 -151 -79
-269 160 -145 295 58 63 121 77 178 38z m4599 -1 c52 -10 67 -17 77 -36 14
-27 7 -42 -8 -20 -10 15 -9 5 7 -51 5 -19 3 -20 -28 -14 -93 20 -192 65 -207
94 -22 41 34 51 159 27z m-4356 -87 c78 -29 106 -65 106 -137 0 -81 -8 -90
-59 -68 -22 10 -64 24 -93 31 -39 8 -53 16 -52 28 0 9 1 51 2 92 2 87 5 89 96
54z m357 -59 c19 -5 48 -23 64 -40 l29 -30 -48 16 c-33 11 -65 15 -102 11 -52
-5 -54 -5 -54 18 0 17 7 25 23 28 39 8 51 7 88 -3z m63 -79 c40 -14 51 -23 58
-46 4 -16 6 -30 4 -32 -1 -2 -17 2 -35 8 -18 6 -57 9 -87 7 -53 -5 -54 -4 -74
29 -11 19 -18 39 -15 44 10 15 96 9 149 -10z m1729 -89 c67 -55 168 -115 231
-136 27 -9 102 -21 168 -26 158 -12 210 -35 338 -155 l95 -89 16 -95 c10 -53
31 -179 48 -280 48 -282 74 -363 138 -423 60 -57 161 -74 243 -42 53 21 52 37
-1 19 -66 -24 -79 -20 -79 20 0 41 17 82 38 90 8 3 37 -2 64 -11 53 -17 115
-16 188 6 66 19 119 2 145 -47 11 -20 40 -51 65 -68 43 -30 45 -34 52 -96 4
-35 11 -102 17 -149 11 -97 3 -126 -48 -176 -56 -55 -151 -67 -266 -33 l-39
11 52 31 c48 29 64 47 43 47 -4 0 -80 -47 -167 -105 -272 -180 -415 -243 -579
-252 -143 -8 -158 -1 -302 140 -156 152 -172 184 -209 392 -25 143 -39 191
-155 520 -49 141 -80 286 -119 555 -24 168 -40 240 -71 332 -21 64 -39 120
-39 123 0 4 18 -8 40 -27 22 -18 64 -52 93 -76z m-232 -147 c11 -38 68 -168
126 -287 59 -120 104 -220 101 -223 -3 -3 -20 1 -39 9 -19 8 -99 29 -179 47
-168 39 -284 44 -337 16 -44 -23 -46 -22 -23 16 11 17 23 31 27 29 8 -4 31 51
43 103 5 22 10 77 11 121 l2 81 44 -5 c41 -4 46 -2 82 36 22 22 45 58 51 79 7
21 22 61 34 88 l21 50 8 -45 c5 -25 18 -76 28 -115z m2983 96 c50 -5 97 -6
105 -3 13 5 14 3 4 -9 -6 -8 -32 -76 -57 -152 -48 -145 -101 -255 -167 -347
-35 -48 -39 -51 -34 -25 4 17 16 43 27 59 55 78 16 185 -85 231 -28 14 -67 25
-84 25 -33 0 -33 0 -33 51 0 27 5 71 11 96 10 38 18 48 47 60 48 20 111 32
147 27 17 -3 70 -8 119 -13z m-226 -256 c99 -42 142 -140 87 -202 l-24 -28
-48 26 c-38 20 -54 38 -75 80 -15 30 -31 73 -34 97 -7 42 -6 42 25 42 17 0 48
-7 69 -15z m705 -287 c21 -224 21 -294 2 -423 -39 -261 -136 -484 -281 -647
-44 -50 -65 -59 -28 -13 49 62 100 161 136 265 32 93 32 98 35 298 3 191 5
210 37 340 19 76 42 188 52 250 11 62 21 112 25 112 3 0 13 -82 22 -182z
m-2017 -194 c-4 -19 -21 -79 -37 -132 -32 -102 -34 -161 -12 -274 11 -53 8
-56 -46 -37 -39 14 -46 36 -45 154 0 71 6 107 27 170 15 44 31 85 35 90 7 11
74 65 81 65 2 0 0 -16 -3 -36z m1309 -60 c-10 -49 -19 -91 -22 -94 -9 -8 5
111 17 153 19 66 22 33 5 -59z m-5886 -584 c-1 -41 -4 -86 -8 -100 -6 -23 -8
-22 -25 20 -18 46 -25 197 -10 222 16 26 44 -64 43 -142z m1661 -72 c0 -58
-16 -112 -31 -102 -11 6 -12 141 -2 210 l7 49 13 -50 c7 -27 13 -76 13 -107z
m-1784 -12 c24 -17 109 -125 103 -131 -2 -2 -28 17 -57 42 -71 61 -108 132
-46 89z m5862 -32 c18 -13 29 -14 54 -5 17 6 42 11 54 11 21 0 24 -5 24 -38 0
-30 -7 -45 -31 -68 -18 -16 -44 -49 -60 -73 l-28 -44 -36 74 c-56 118 -45 191
23 143z m-5582 -68 c-9 -45 -89 -167 -94 -143 -6 27 26 111 60 159 33 45 44
40 34 -16z m5471 4 c30 -18 70 -76 60 -87 -9 -8 -85 36 -101 59 -34 48 -13 62
41 28z m321 -2 c33 -33 4 -87 -65 -122 -43 -22 -60 -20 -66 6 -7 27 31 81 77
109 37 22 38 23 54 7z m-294 -96 c78 -43 68 -55 -21 -25 -90 30 -92 31 -73 43
23 15 41 12 94 -18z m-5758 -28 c46 -30 114 -94 114 -107 0 -16 -117 54 -156
94 -33 34 -35 39 -17 39 11 0 38 -12 59 -26z m5874 -54 c0 -5 -5 -12 -11 -16
-12 -7 -31 15 -23 28 6 9 34 -1 34 -12z m-5503 -59 c-3 -40 -19 -89 -46 -149
-23 -49 -41 -102 -41 -118 -1 -26 -2 -27 -12 -10 -15 26 -3 143 22 207 18 49
67 129 78 129 3 0 2 -27 -1 -59z m5267 -54 c30 -52 55 -133 61 -200 l5 -62
-45 90 c-61 122 -79 273 -21 172z m-5554 -128 c31 -16 74 -48 95 -69 l38 -38
-44 5 c-81 10 -142 40 -194 94 l-50 52 48 -7 c27 -3 75 -20 107 -37z m420 -83
c0 -63 -7 -106 -26 -168 -14 -46 -29 -87 -34 -91 -14 -15 -21 110 -10 179 11
71 46 164 61 164 5 0 9 -38 9 -84z m4840 24 c13 -24 28 -25 52 -3 26 24 39 5
24 -37 -10 -30 -16 -35 -38 -32 -15 1 -29 -2 -33 -8 -12 -19 -22 -10 -35 29
-19 59 4 99 30 51z m-43 -66 c14 -30 22 -58 19 -61 -8 -9 -54 24 -72 52 -16
24 -15 27 1 45 10 11 20 20 22 20 2 0 16 -25 30 -56z m173 12 c0 -17 -12 -34
-35 -52 -20 -15 -38 -25 -40 -22 -7 7 53 98 65 98 5 0 10 -11 10 -24z m617
-35 c-3 -25 -13 -64 -22 -86 l-17 -39 -13 24 c-18 33 -28 94 -20 120 3 11 15
20 25 20 10 0 22 5 25 10 15 24 27 -5 22 -49z m-707 -14 c0 -14 -20 -37 -32
-37 -10 0 -11 34 -1 43 11 12 33 8 33 -6z m-202 -252 c35 -77 37 -85 36 -190
0 -103 -22 -230 -31 -180 -2 11 -31 76 -63 145 -90 187 -104 289 -59 428 l11
34 35 -79 c19 -43 51 -114 71 -158z m782 209 c17 -15 38 -40 46 -56 l16 -30
-34 7 c-56 12 -76 30 -76 70 0 42 7 43 48 9z m236 -26 c-4 -23 -1 -43 11 -65
16 -31 16 -33 -2 -52 -25 -28 -45 -26 -104 10 l-51 32 31 38 c39 49 67 69 97
69 22 0 24 -3 18 -32z m-5514 -108 c0 -44 -9 -102 -21 -140 -10 -36 -21 -74
-23 -85 -10 -47 -30 72 -25 145 6 91 45 202 60 174 6 -10 10 -52 9 -94z m-462
36 c50 -21 202 -105 190 -106 -3 0 -42 7 -87 14 -87 16 -169 49 -218 90 l-30
25 45 0 c25 0 70 -10 100 -23z m5800 -28 c0 -22 -41 -96 -57 -102 -20 -8 -23
-5 -29 36 -6 31 -3 37 27 56 38 24 59 28 59 10z m64 -43 c14 -19 29 -47 31
-62 5 -24 1 -30 -29 -44 l-34 -16 -6 30 c-9 45 -7 127 3 127 5 0 20 -16 35
-35z m-6023 -249 c11 -42 4 -146 -11 -146 -5 0 -22 13 -38 29 -52 52 -66 166
-24 190 24 14 59 -22 73 -73z m119 8 c5 -13 5 -36 0 -52 -9 -34 -57 -119 -71
-128 -5 -3 -9 34 -9 85 0 77 3 94 20 111 23 23 48 17 60 -16z m351 -3 c126
-53 125 -57 -4 -50 -97 4 -122 9 -169 32 -31 15 -62 35 -69 44 -12 14 -6 15
76 11 72 -4 105 -11 166 -37z m5214 -3 c-11 -37 -53 -93 -95 -127 -68 -54 -39
22 38 102 51 52 67 59 57 25z m225 -53 c0 -17 -49 -85 -61 -85 -13 0 3 44 24
68 19 20 37 29 37 17z m-5880 -66 c0 -16 -4 -28 -9 -25 -8 5 -3 56 5 56 2 0 4
-14 4 -31z m5929 14 c-35 -47 -54 -63 -76 -63 -31 0 -29 7 15 46 41 36 85 48
61 17z m-6049 -22 c25 -13 36 -26 38 -46 5 -36 -11 -45 -81 -45 -51 0 -62 4
-88 29 -35 35 -36 45 -7 65 30 22 96 20 138 -3z m239 -29 c11 -21 -4 -59 -30
-75 -19 -12 -69 -1 -69 14 0 14 65 79 79 79 6 0 15 -8 20 -18z m-144 -24 c32
-14 32 -25 0 -40 -30 -14 -43 -5 -25 18 12 13 11 17 -1 25 -20 12 -5 11 26 -3z
m5894 -20 c53 -32 67 -58 32 -58 -21 0 -81 51 -81 69 0 16 8 14 49 -11z
m-5508 -43 c20 -45 19 -105 -1 -105 -13 0 -50 83 -50 111 0 55 26 52 51 -6z
m-450 1 c-10 -12 -8 -15 10 -18 19 -3 15 -10 -37 -65 -66 -70 -106 -87 -123
-55 -14 27 -2 59 37 95 39 38 140 75 113 43z m99 -36 c14 -33 3 -79 -27 -112
-19 -21 -71 -24 -79 -4 -8 20 35 114 60 131 28 20 32 19 46 -15z m435 -7 c-9
-21 -25 -47 -35 -58 -20 -19 -20 -19 -20 5 0 32 35 90 55 90 14 0 14 -4 0 -37z
m335 -126 c112 -241 180 -526 180 -758 0 -181 -34 -376 -67 -386 -6 -3 -18 9
-27 24 -16 32 -59 238 -75 358 -6 44 -17 130 -25 190 -18 130 -42 411 -51 580
-6 113 -6 119 10 97 9 -12 34 -60 55 -105z m-451 59 c31 -33 23 -41 -20 -23
-40 17 -74 51 -64 66 8 14 52 -8 84 -43z m5160 -61 c48 -55 41 -70 -17 -35
-29 18 -72 73 -72 93 0 15 58 -23 89 -58z m-4922 -92 c6 -58 -15 -189 -28
-176 -17 17 -22 138 -9 192 15 62 28 56 37 -16z m-246 -49 c24 -15 -169 -58
-211 -47 -21 6 -21 6 -1 20 41 28 96 43 148 39 29 -3 58 -8 64 -12z m4870
-140 c30 -10 81 -20 114 -24 l60 -6 -55 -27 c-67 -33 -142 -35 -266 -10 -78
16 -88 16 -129 2 -25 -9 -45 -15 -45 -14 0 10 95 62 140 76 70 23 113 23 181
3z m-4819 -148 c91 -17 192 -67 263 -131 49 -44 50 -44 15 -31 -19 8 -62 17
-95 21 -88 11 -168 40 -251 93 -98 63 -82 74 68 48z m4534 -832 c20 -42 33
-78 30 -81 -3 -3 -17 21 -31 53 -37 83 -45 104 -39 104 3 0 21 -34 40 -76z
m-3556 -161 c-23 -69 -77 -193 -84 -193 -3 0 -1 12 5 28 6 15 22 57 35 94 36
97 55 141 60 136 2 -3 -5 -32 -16 -65z"/>
<path d="M6012 8153 c-45 -9 -10 -21 46 -16 108 10 226 -44 267 -122 11 -19
23 -35 27 -35 27 0 -24 74 -80 117 -68 51 -169 73 -260 56z"/>
<path d="M5950 8061 c0 -22 46 -41 97 -41 91 0 141 -31 174 -109 23 -51 36
-49 19 3 -26 81 -94 125 -191 126 -38 0 -61 5 -69 15 -14 17 -30 20 -30 6z"/>
<path d="M5870 7561 c0 -34 184 -166 297 -213 29 -12 53 -25 53 -29 0 -4 -16
-13 -36 -19 -68 -23 -158 11 -218 81 -20 24 -36 36 -36 28 0 -20 76 -92 120
-115 62 -32 184 -17 198 23 2 8 -28 27 -75 48 -108 50 -214 117 -257 165 -36
41 -46 47 -46 31z"/>
<path d="M6698 7083 c25 -10 12 -25 -18 -19 -16 3 -30 2 -30 -3 0 -4 24 -11
53 -15 28 -3 62 -9 75 -12 17 -5 22 -2 22 14 0 16 -10 22 -50 31 -53 11 -74
13 -52 4z"/>
<path d="M2923 8528 c-10 -11 -17 -50 -14 -70 1 -4 16 1 34 11 38 21 46 64 11
69 -11 2 -26 -3 -31 -10z m37 -17 c0 -14 -18 -23 -30 -16 -6 4 -8 11 -5 16 8
12 35 12 35 0z"/>
<path d="M2900 8372 c0 -15 4 -32 8 -38 12 -18 40 -23 52 -9 18 21 3 52 -30
64 -28 9 -30 9 -30 -17z m45 -12 c11 -17 -5 -32 -21 -19 -7 6 -11 15 -8 20 7
12 21 11 29 -1z"/>
<path d="M3173 8090 c-126 -18 -308 -75 -301 -96 2 -5 5 -8 8 -7 160 72 360
104 515 84 277 -37 497 -196 445 -321 -15 -37 -44 -52 -150 -75 -41 -10 -121
-35 -177 -57 -150 -58 -168 -91 -36 -69 146 25 322 103 367 164 25 34 26 99 1
146 -43 83 -183 171 -336 210 -89 23 -250 33 -336 21z m587 -424 c0 -16 -298
-112 -322 -104 -15 5 138 64 227 88 72 19 95 23 95 16z"/>
<path d="M3890 7695 c0 -5 17 -43 39 -85 54 -105 75 -193 75 -322 1 -105 7
-132 20 -85 28 104 -35 387 -104 468 -16 19 -29 30 -30 24z"/>
<path d="M2980 7013 c-64 -9 -169 -38 -203 -55 -44 -22 -53 -38 -37 -67 19
-36 51 -35 151 4 130 51 261 58 362 20 11 -5 17 -2 17 7 0 18 -79 62 -135 76
-51 13 -123 20 -155 15z m108 -23 c27 -5 64 -15 82 -22 28 -12 22 -13 -77 -13
-97 -1 -116 -4 -188 -32 -111 -43 -119 -45 -140 -29 -16 12 -17 16 -6 30 20
24 177 69 262 75 9 0 39 -3 67 -9z"/>
<path d="M2948 6830 c-36 -19 -72 -59 -63 -69 3 -2 18 7 33 21 57 54 115 62
202 29 27 -11 52 -15 55 -11 8 13 -102 50 -148 50 -23 -1 -59 -10 -79 -20z"/>
<path d="M3088 6250 c-81 -53 -185 -84 -280 -85 -84 0 -102 -9 -40 -20 96 -16
308 50 366 114 31 34 15 31 -46 -9z"/>
<path d="M3712 5048 c-6 -7 -32 -60 -59 -118 -147 -313 -308 -452 -608 -525
-136 -32 -183 -57 -210 -110 -18 -37 -20 -59 -19 -270 1 -243 9 -325 65 -665
39 -238 95 -508 165 -807 88 -371 93 -393 109 -483 22 -117 30 -351 16 -496
-14 -150 -46 -281 -101 -404 -70 -157 -73 -169 -56 -194 28 -44 168 -66 287
-46 41 7 130 30 199 51 251 77 493 99 696 64 81 -14 150 -36 537 -171 278 -96
464 -129 681 -121 209 8 316 35 563 143 6 3 -6 -41 -27 -99 -20 -57 -59 -169
-85 -248 -46 -140 -90 -239 -155 -349 -48 -82 -91 -200 -72 -200 5 0 16 26 26
58 10 31 42 100 71 152 76 134 101 193 195 467 l83 241 76 50 c85 56 167 137
177 176 8 33 -12 83 -37 91 -40 13 -125 -88 -198 -233 l-40 -80 -109 -46
c-380 -160 -745 -143 -1268 60 -274 106 -393 135 -584 141 -180 6 -299 -10
-519 -73 -86 -25 -187 -49 -225 -55 -110 -17 -247 6 -262 45 -3 8 13 56 36
107 86 191 113 295 131 499 20 234 0 432 -75 739 -32 130 -36 159 -36 280 0
199 -27 705 -45 861 -43 372 -92 634 -145 773 -13 35 -16 53 -9 58 6 3 11 10
11 15 -1 5 6 8 14 6 19 -4 178 40 306 84 185 64 313 152 410 282 79 106 137
266 122 335 -6 29 -16 34 -32 15z m3 -126 c-31 -108 -83 -191 -180 -287 -72
-73 -108 -100 -182 -138 -110 -56 -132 -61 -44 -9 84 49 200 158 251 235 23
34 69 118 103 187 51 102 63 120 65 97 2 -15 -4 -53 -13 -85z m-656 -536 c-7
-7 -131 -37 -136 -33 -2 3 22 11 54 20 59 15 90 20 82 13z m-154 -246 c84
-293 136 -756 150 -1320 l5 -245 -35 150 c-59 248 -127 616 -171 920 -19 130
-26 563 -11 620 l9 30 14 -35 c8 -19 26 -73 39 -120z m3333 -2932 c21 -21 13
-64 -19 -104 -29 -37 -179 -157 -187 -150 -10 11 86 170 138 229 34 39 49 44
68 25z"/>
</g>
</svg>
